<svg width="392" height="152" fill="none" xmlns="http://www.w3.org/2000/svg"><circle cx="149" cy="70" r="50" fill="#020202"/><path d="M135.768 51.52h-2.4c-.704-1.856-1.44-4.032-2.208-6.528a146.502 146.502 0 01-1.824-7.104c2.24-1.92 4.928-3.424 8.064-4.512 3.136-1.152 6.528-1.728 10.176-1.728 3.2 0 5.952.448 8.256 1.344 2.304.896 4.192 2.112 5.664 3.648a13.897 13.897 0 013.36 5.376 18.52 18.52 0 011.056 6.24c0 3.584-.832 7.264-2.496 11.04-1.664 3.776-3.744 7.456-6.24 11.04a92.345 92.345 0 01-7.968 9.984c-2.88 3.136-5.536 5.888-7.968 8.256l-4.032 3.744v.384l5.376-.576h16.512l4.704-10.752h2.4c.128 1.408.256 2.944.384 4.608.128 1.664.224 3.36.288 5.088.128 1.664.224 3.296.288 4.896a98.37 98.37 0 01.096 4.032h-39.648v-3.072a839.811 839.811 0 005.088-5.376 144.657 144.657 0 006.336-7.008c2.176-2.56 4.32-5.28 6.432-8.16a78.95 78.95 0 005.76-8.736c1.664-3.008 3.008-5.984 4.032-8.928 1.088-2.944 1.632-5.76 1.632-8.448 0-1.856-.256-3.616-.768-5.28-.448-1.664-1.152-3.104-2.112-4.32a9.952 9.952 0 00-3.552-2.976c-1.344-.704-2.912-1.056-4.704-1.056-1.344 0-2.528.096-3.552.288-1.024.192-2.144.48-3.36.864l-3.072 13.728z" fill="#fff"/><path d="M1.44 54.304c2.432-1.536 4.992-2.624 7.68-3.264v-8.16A12.996 12.996 0 0112 41.056c1.152-.576 2.272-1.12 3.36-1.632h2.4V52h14.4v4.8h-14.4v27.84c0 3.84.608 6.56 1.824 8.16 1.216 1.6 3.04 2.4 5.472 2.4 1.152 0 2.592-.064 4.32-.192 1.728-.192 3.2-.512 4.416-.96l.672 1.44c-.512.576-1.248 1.184-2.208 1.824-.896.64-1.952 1.248-3.168 1.824a20.82 20.82 0 01-3.84 1.44 16.345 16.345 0 01-4.32.576c-3.84 0-6.784-1.088-8.832-3.264-1.984-2.176-2.976-5.696-2.976-10.56V56.8H1.44v-2.496zM39.561 76c0-4.032.512-7.584 1.536-10.656 1.088-3.136 2.624-5.76 4.608-7.872a18.882 18.882 0 017.104-4.896c2.816-1.152 5.92-1.728 9.312-1.728 3.968 0 7.392.608 10.272 1.824 2.88 1.216 5.216 2.944 7.008 5.184 1.856 2.176 3.2 4.8 4.032 7.872.896 3.072 1.344 6.496 1.344 10.272 0 8.064-2.048 14.272-6.144 18.624-4.096 4.352-9.6 6.528-16.512 6.528-3.84 0-7.168-.576-9.984-1.728-2.816-1.216-5.152-2.912-7.008-5.088-1.856-2.24-3.264-4.896-4.224-7.968-.896-3.136-1.344-6.592-1.344-10.368zm9.216 0c0 2.88.256 5.6.768 8.16.576 2.56 1.44 4.8 2.592 6.72a13.515 13.515 0 004.704 4.416c1.92 1.088 4.224 1.632 6.912 1.632 3.456 0 6.272-1.696 8.448-5.088 2.24-3.392 3.36-8.672 3.36-15.84 0-2.944-.288-5.664-.864-8.16-.512-2.56-1.344-4.768-2.496-6.624-1.152-1.92-2.624-3.424-4.416-4.512-1.792-1.088-3.936-1.632-6.432-1.632-3.776 0-6.816 1.696-9.12 5.088-2.304 3.392-3.456 8.672-3.456 15.84zM228.83 59.2c-.704.384-1.6 1.184-2.688 2.4-1.024 1.152-1.952 2.88-2.784 5.184v28.512c1.28.128 2.56.384 3.84.768 1.28.32 2.56.832 3.84 1.536v2.4h-22.656v-2.4c1.152-.64 2.24-1.12 3.264-1.44a55.108 55.108 0 013.072-.864V57.568l-6.336-.768v-2.496c2.048-.896 4.16-1.6 6.336-2.112a64.711 64.711 0 016.24-1.344h2.4v10.176h.384c.576-1.28 1.376-2.56 2.4-3.84a23.326 23.326 0 013.648-3.456 15.848 15.848 0 014.512-2.304 11.49 11.49 0 015.088-.576c.448.832.832 1.76 1.152 2.784.384.96.736 1.984 1.056 3.072V59.2H228.83zm56.236 34.08c-.512 1.088-1.312 2.112-2.4 3.072a17.349 17.349 0 01-3.744 2.496 20.641 20.641 0 01-4.608 1.632c-1.664.448-3.36.672-5.088.672-3.776 0-7.104-.576-9.984-1.728-2.88-1.216-5.28-2.912-7.2-5.088-1.92-2.24-3.392-4.896-4.416-7.968-.96-3.072-1.44-6.528-1.44-10.368 0-8.192 1.888-14.432 5.664-18.72 3.776-4.288 9.12-6.432 16.032-6.432 2.24 0 4.448.32 6.624.96 2.176.576 4.096 1.568 5.76 2.976 1.728 1.408 3.104 3.296 4.128 5.664 1.088 2.304 1.632 5.184 1.632 8.64 0 1.088-.064 2.208-.192 3.36a26.001 26.001 0 01-.48 3.552h-29.952c0 2.688.32 5.216.96 7.584.704 2.304 1.728 4.32 3.072 6.048 1.344 1.728 3.04 3.104 5.088 4.128 2.048.96 4.448 1.44 7.2 1.44 2.24 0 4.512-.32 6.816-.96 2.304-.64 4.032-1.472 5.184-2.496l1.344 1.536zm-17.568-38.208c-3.648 0-6.432 1.248-8.352 3.744-1.92 2.432-3.072 6.752-3.456 12.96h21.12c.064-.576.096-1.12.096-1.632.064-.576.096-1.12.096-1.632 0-4.096-.768-7.36-2.304-9.792-1.536-2.432-3.936-3.648-7.2-3.648zM345.923 100h-20.64v-2.4c1.728-.896 3.616-1.664 5.664-2.304V72.544c0-4.864-.704-8.704-2.112-11.52-1.408-2.816-3.968-4.224-7.68-4.224-1.6 0-3.104.288-4.512.864a12.439 12.439 0 00-3.648 2.4c-1.024.96-1.92 2.08-2.688 3.36a17.578 17.578 0 00-1.824 3.84v28.032c1.984.384 3.904 1.152 5.76 2.304v2.4h-20.736v-2.4c1.6-.832 3.712-1.6 6.336-2.304V57.568l-6.336-.768v-2.496c1.664-.704 3.584-1.344 5.76-1.92a97.397 97.397 0 016.816-1.536h2.4V61.6h.096a21.547 21.547 0 015.76-7.584c2.56-2.112 5.632-3.168 9.216-3.168 2.56 0 4.832.32 6.816.96 2.048.576 3.744 1.632 5.088 3.168 1.344 1.536 2.368 3.616 3.072 6.24.704 2.56 1.056 5.824 1.056 9.792v24.288c2.56.448 4.672 1.216 6.336 2.304v2.4zm3.048-45.696c2.432-1.536 4.992-2.624 7.68-3.264v-8.16a12.996 12.996 0 012.88-1.824c1.152-.576 2.272-1.12 3.36-1.632h2.4V52h14.4v4.8h-14.4v27.84c0 3.84.608 6.56 1.824 8.16 1.216 1.6 3.04 2.4 5.472 2.4 1.152 0 2.592-.064 4.32-.192 1.728-.192 3.2-.512 4.416-.96l.672 1.44c-.512.576-1.248 1.184-2.208 1.824-.896.64-1.952 1.248-3.168 1.824a20.82 20.82 0 01-3.84 1.44 16.345 16.345 0 01-4.32.576c-3.84 0-6.784-1.088-8.832-3.264-1.984-2.176-2.976-5.696-2.976-10.56V56.8h-7.68v-2.496zM201.16 145l-1.08 3.552h-.624a57.082 57.082 0 01-.192-2.376 58.86 58.86 0 01-.048-2.352h1.632c.192-.224.408-.576.648-1.056.24-.48.464-1.096.672-1.848.224-.768.408-1.68.552-2.736.16-1.072.24-2.32.24-3.744a4.71 4.71 0 01-.912-.36 6.557 6.557 0 01-.744-.456V133h10.2v.624c-.432.288-.96.48-1.584.576v9.624h2.136c.016.768 0 1.552-.048 2.352-.048.8-.12 1.592-.216 2.376h-.6l-1.08-3.552h-8.952zm3.12-10.8c0 1.44-.072 2.696-.216 3.768-.144 1.072-.32 1.992-.528 2.76-.192.752-.4 1.384-.624 1.896a13.82 13.82 0 01-.6 1.2h5.448V134.2h-3.48zm9.462 4.8c0-1.008.128-1.896.384-2.664.272-.784.656-1.44 1.152-1.968a4.72 4.72 0 011.776-1.224c.704-.288 1.48-.432 2.328-.432.992 0 1.848.152 2.568.456.72.304 1.304.736 1.752 1.296.464.544.8 1.2 1.008 1.968.224.768.336 1.624.336 2.568 0 2.016-.512 3.568-1.536 4.656-1.024 1.088-2.4 1.632-4.128 1.632-.96 0-1.792-.144-2.496-.432a4.722 4.722 0 01-1.752-1.272 5.789 5.789 0 01-1.056-1.992c-.224-.784-.336-1.648-.336-2.592zm2.304 0c0 .72.064 1.4.192 2.04.144.64.36 1.2.648 1.68.304.464.696.832 1.176 1.104.48.272 1.056.408 1.728.408.864 0 1.568-.424 2.112-1.272.56-.848.84-2.168.84-3.96 0-.736-.072-1.416-.216-2.04-.128-.64-.336-1.192-.624-1.656a3.244 3.244 0 00-1.104-1.128c-.448-.272-.984-.408-1.608-.408-.944 0-1.704.424-2.28 1.272-.576.848-.864 2.168-.864 3.96zm14.945 6h-4.224v-.6a7.892 7.892 0 011.584-.576l.36-9.384a6.632 6.632 0 01-.888-.408c-.256-.144-.488-.28-.696-.408V133h4.68l2.472 7.008.456 1.656h.072l.504-1.68 2.568-6.984h4.536v.624c-.208.128-.44.24-.696.336a5.441 5.441 0 01-.888.24l.48 9.624a5.277 5.277 0 011.584.576v.6h-5.088v-.6c.16-.08.352-.168.576-.264.224-.096.512-.2.864-.312l-.48-9.72h-.192L234.639 145h-.648l-3.888-10.896h-.192l-.36 9.72a7.905 7.905 0 011.44.576v.6zm22.497-3.144c0 .352.008.656.024.912l.048.816 1.656.24v.504c-.4.208-.848.392-1.344.552-.48.16-.944.28-1.392.36h-.6a3.666 3.666 0 01-.288-1.2 35.914 35.914 0 01-.072-1.464h-.12c-.064.32-.192.648-.384.984-.176.32-.416.608-.72.864a3.484 3.484 0 01-1.032.624c-.4.16-.856.24-1.368.24-.976 0-1.776-.296-2.4-.888-.608-.592-.912-1.368-.912-2.328 0-.736.144-1.336.432-1.8.304-.48.744-.856 1.32-1.128.576-.272 1.288-.464 2.136-.576a32.415 32.415 0 012.952-.288c.064-.688.08-1.304.048-1.848-.016-.56-.104-1.032-.264-1.416-.144-.4-.368-.704-.672-.912-.288-.224-.672-.336-1.152-.336-.224 0-.48.016-.768.048-.272.016-.544.08-.816.192l-1.128 2.88h-.624c-.16-.48-.304-.976-.432-1.488a10.12 10.12 0 01-.216-1.512 8.154 8.154 0 012.016-.864c.752-.208 1.584-.312 2.496-.312.816 0 1.464.12 1.944.36.496.224.872.52 1.128.888.256.368.424.776.504 1.224.08.448.12.896.12 1.344 0 .96-.024 1.888-.072 2.784-.032.88-.048 1.728-.048 2.544zm-4.632 1.944c.4 0 .752-.08 1.056-.24.304-.16.56-.352.768-.576a3.68 3.68 0 00.504-.672c.128-.24.216-.44.264-.6v-2.52c-.928 0-1.688.048-2.28.144-.592.096-1.056.248-1.392.456-.336.208-.568.472-.696.792a2.704 2.704 0 00-.192 1.056c0 .688.176 1.224.528 1.608.352.368.832.552 1.44.552zm13.682-10.8h5.088v.624a5.852 5.852 0 01-.624.288 7.77 7.77 0 01-.816.288v6.576l-.264 2.232h.12l.936-1.8 5.136-8.208h3.24v.624c-.512.288-1.04.48-1.584.576v9.624c.304.08.592.168.864.264.272.08.512.184.72.312v.6h-5.088v-.6a5.649 5.649 0 011.44-.576v-6.864l.24-1.896h-.12l-.912 1.8-5.088 8.136h-3.288v-.6c.272-.128.536-.232.792-.312.256-.096.52-.184.792-.264V134.2c-.624-.096-1.152-.288-1.584-.576V133zm27.395 0h4.632v.624a2.22 2.22 0 01-.648.336c-.256.096-.576.208-.96.336-.544.656-1.12 1.32-1.728 1.992a55.747 55.747 0 01-1.92 2.016c.352.384.72.808 1.104 1.272.4.464.8.944 1.2 1.44.4.496.8.984 1.2 1.464.4.48.792.928 1.176 1.344l1.128.576v.6h-2.808l-.768-.552a34.64 34.64 0 01-1.968-2.592 102.632 102.632 0 00-1.8-2.544h-.96v4.512c.32.08.608.168.864.264.272.08.504.184.696.312v.6h-5.304v-.6c.432-.256.96-.448 1.584-.576V134.2a5.53 5.53 0 01-1.584-.576V133h4.92v.624c-.16.112-.336.216-.528.312a3.616 3.616 0 01-.648.264v4.488l1.104-.24c.64-.736 1.248-1.424 1.824-2.064a17.599 17.599 0 001.608-2.088 82.327 82.327 0 00-.768-.312 8.423 8.423 0 01-.648-.36V133zm16.728 8.496c0 .64-.144 1.192-.432 1.656-.288.448-.68.816-1.176 1.104-.48.288-1.04.504-1.68.648-.64.128-1.312.192-2.016.192-.512 0-.92-.008-1.224-.024a10.277 10.277 0 01-1.296-.072h-2.784v-.6a6.687 6.687 0 011.584-.576V134.2c-.608-.112-1.136-.304-1.584-.576V133h3.144l.768-.048c.24-.016.48-.024.72-.024.24-.016.504-.024.792-.024 1.408 0 2.504.216 3.288.648.784.416 1.176 1.152 1.176 2.208 0 .384-.08.728-.24 1.032-.16.304-.368.568-.624.792a4.066 4.066 0 01-.864.576 4.59 4.59 0 01-.936.312c.448.032.872.12 1.272.264.416.144.776.344 1.08.6.32.24.568.544.744.912.192.352.288.768.288 1.248zm-6.864 2.472c.224.048.504.072.84.072h.864c.944 0 1.648-.2 2.112-.6.464-.416.696-1 .696-1.752 0-.784-.28-1.368-.84-1.752-.56-.4-1.28-.6-2.16-.6h-1.512v4.632zm0-5.352l2.664-.24c.288-.144.576-.408.864-.792.304-.4.456-.92.456-1.56 0-.784-.24-1.32-.72-1.608-.464-.304-1.152-.456-2.064-.456-.176 0-.376.008-.6.024-.224 0-.424.024-.6.072v4.56zm17.84 3.24c0 .352.008.656.024.912l.048.816 1.656.24v.504c-.4.208-.848.392-1.344.552-.48.16-.944.28-1.392.36h-.6a3.666 3.666 0 01-.288-1.2 35.914 35.914 0 01-.072-1.464h-.12c-.064.32-.192.648-.384.984-.176.32-.416.608-.72.864a3.484 3.484 0 01-1.032.624c-.4.16-.856.24-1.368.24-.976 0-1.776-.296-2.4-.888-.608-.592-.912-1.368-.912-2.328 0-.736.144-1.336.432-1.8.304-.48.744-.856 1.32-1.128.576-.272 1.288-.464 2.136-.576a32.415 32.415 0 012.952-.288c.064-.688.08-1.304.048-1.848-.016-.56-.104-1.032-.264-1.416-.144-.4-.368-.704-.672-.912-.288-.224-.672-.336-1.152-.336-.224 0-.48.016-.768.048-.272.016-.544.08-.816.192l-1.128 2.88h-.624c-.16-.48-.304-.976-.432-1.488a10.12 10.12 0 01-.216-1.512 8.154 8.154 0 012.016-.864c.752-.208 1.584-.312 2.496-.312.816 0 1.464.12 1.944.36.496.224.872.52 1.128.888.256.368.424.776.504 1.224.08.448.12.896.12 1.344 0 .96-.024 1.888-.072 2.784-.032.88-.048 1.728-.048 2.544zm-4.632 1.944c.4 0 .752-.08 1.056-.24.304-.16.56-.352.768-.576a3.68 3.68 0 00.504-.672c.128-.24.216-.44.264-.6v-2.52c-.928 0-1.688.048-2.28.144-.592.096-1.056.248-1.392.456-.336.208-.568.472-.696.792a2.704 2.704 0 00-.192 1.056c0 .688.176 1.224.528 1.608.352.368.832.552 1.44.552zm12.981 6h-5.328v-.6a8.67 8.67 0 011.584-.576v-14.232l-1.584-.192v-.624a9.43 9.43 0 011.56-.528 15.62 15.62 0 011.584-.336h.6v2.688h.024c.32-.816.768-1.464 1.344-1.944.576-.496 1.328-.744 2.256-.744 1.424 0 2.528.472 3.312 1.416.784.944 1.176 2.48 1.176 4.608 0 1.008-.136 1.92-.408 2.736-.256.816-.632 1.504-1.128 2.064-.48.56-1.072.992-1.776 1.296-.688.304-1.456.456-2.304.456-.592 0-1.056-.04-1.392-.12a5.184 5.184 0 01-1.104-.36v3.816c.256.032.512.088.768.168.256.096.528.232.816.408v.6zm1.272-15.6c-.784 0-1.408.248-1.872.744-.464.496-.792 1.176-.984 2.04v6.72c.288.176.608.312.96.408.368.08.84.12 1.416.12.528 0 1-.136 1.416-.408a3.264 3.264 0 001.08-1.152 6.01 6.01 0 00.696-1.728 9.53 9.53 0 00.24-2.208c0-.656-.056-1.256-.168-1.8-.096-.56-.264-1.04-.504-1.44a2.4 2.4 0 00-.912-.96c-.368-.224-.824-.336-1.368-.336zm14.467 10.8h-5.328v-.6a6.687 6.687 0 011.584-.576v-9.768h-2.232l-1.056 2.88h-.624a42.804 42.804 0 01-.288-3.936h10.56a45.6 45.6 0 01-.096 1.896 22.503 22.503 0 01-.192 2.04h-.624l-1.056-2.88h-2.232v9.768c.752.192 1.28.384 1.584.576v.6zm4.227-12h5.088v.624a5.852 5.852 0 01-.624.288 7.77 7.77 0 01-.816.288v6.576l-.264 2.232h.12l.936-1.8 5.136-8.208h3.24v.624c-.512.288-1.04.48-1.584.576v9.624c.304.08.592.168.864.264.272.08.512.184.72.312v.6h-5.088v-.6a5.649 5.649 0 011.44-.576v-6.864l.24-1.896h-.12l-.912 1.8L349.24 145h-3.288v-.6c.272-.128.536-.232.792-.312.256-.096.52-.184.792-.264V134.2c-.624-.096-1.152-.288-1.584-.576V133zm19.831 16.8h-5.328v-.6a8.67 8.67 0 011.584-.576v-14.232l-1.584-.192v-.624a9.43 9.43 0 011.56-.528 15.62 15.62 0 011.584-.336h.6v2.688h.024c.32-.816.768-1.464 1.344-1.944.576-.496 1.328-.744 2.256-.744 1.424 0 2.528.472 3.312 1.416.784.944 1.176 2.48 1.176 4.608 0 1.008-.136 1.92-.408 2.736-.256.816-.632 1.504-1.128 2.064-.48.56-1.072.992-1.776 1.296-.688.304-1.456.456-2.304.456-.592 0-1.056-.04-1.392-.12a5.184 5.184 0 01-1.104-.36v3.816c.256.032.512.088.768.168.256.096.528.232.816.408v.6zm1.272-15.6c-.784 0-1.408.248-1.872.744-.464.496-.792 1.176-.984 2.04v6.72c.288.176.608.312.96.408.368.08.84.12 1.416.12.528 0 1-.136 1.416-.408a3.264 3.264 0 001.08-1.152 6.01 6.01 0 00.696-1.728 9.53 9.53 0 00.24-2.208c0-.656-.056-1.256-.168-1.8-.096-.56-.264-1.04-.504-1.44a2.4 2.4 0 00-.912-.96c-.368-.224-.824-.336-1.368-.336zm10.93 3.696c.272-.032.576-.072.912-.12.336-.048.824-.072 1.464-.072 1.2 0 2.16.28 2.88.84.736.56 1.104 1.44 1.104 2.64 0 .64-.12 1.208-.36 1.704-.224.48-.544.888-.96 1.224-.416.32-.912.568-1.488.744a7.07 7.07 0 01-1.896.24c-.432 0-.92-.016-1.464-.048a28.262 28.262 0 00-1.704-.048h-2.232v-.6c.272-.16.536-.28.792-.36.256-.08.52-.152.792-.216V134.2a4.298 4.298 0 01-.84-.216 10.658 10.658 0 01-.744-.36V133h5.184v.624c-.368.224-.848.416-1.44.576v3.696zm0 6.072l.624.048c.208.016.424.024.648.024 1.808 0 2.712-.96 2.712-2.88 0-.448-.072-.824-.216-1.128a1.658 1.658 0 00-.552-.744 1.968 1.968 0 00-.792-.408 3.758 3.758 0 00-.96-.12c-.224 0-.464.008-.72.024-.256 0-.504.024-.744.072v5.112zM390.273 145h-5.16v-.6c.224-.112.448-.216.672-.312a6.67 6.67 0 01.744-.264V134.2c-.608-.112-1.088-.304-1.44-.576V133h5.184v.624c-.192.128-.424.24-.696.336-.272.08-.568.16-.888.24v9.624c.272.08.536.168.792.264.256.08.52.184.792.312v.6z" fill="#888"/></svg>